<?xml version="1.0" standalone="no"?>
<!DOCTYPE svg PUBLIC "-//W3C//DTD SVG 20010904//EN"
 "http://www.w3.org/TR/2001/REC-SVG-20010904/DTD/svg10.dtd">
<svg version="1.0" xmlns="http://www.w3.org/2000/svg"
 width="60" height="30" viewBox="0 0 1024.000000 687.000000"
 preserveAspectRatio="xMidYMid meet">

<g transform="translate(0.000000,687.000000) scale(0.100000,-0.100000)"
fill="#606060" stroke="none">
<path d="M4630 6529 c-1218 -90 -2313 -483 -3100 -1115 -157 -126 -402 -368
-511 -504 -296 -371 -467 -746 -536 -1171 -23 -142 -23 -466 0 -608 46 -282
140 -550 279 -793 137 -240 268 -408 488 -628 315 -316 652 -551 1115 -780
672 -332 1395 -520 2275 -591 190 -16 763 -16 960 0 1269 99 2337 487 3140
1139 133 109 383 358 481 482 297 374 467 746 536 1171 23 142 23 466 0 608
-69 425 -240 800 -536 1171 -109 136 -354 378 -511 504 -794 637 -1887 1027
-3122 1116 -170 12 -789 11 -958 -1z m3780 -2154 c268 -41 480 -149 619 -317
66 -79 134 -218 162 -328 27 -109 37 -344 19 -474 -58 -431 -346 -702 -813
-765 -102 -14 -337 -14 -452 0 -463 56 -757 318 -830 738 -31 175 -15 411 39
570 104 302 372 514 726 571 41 6 82 13 90 15 50 10 358 3 440 -10z m-5559
-905 c203 -487 376 -902 384 -922 l15 -38 -333 0 -333 0 -49 150 -49 150 -361
0 -361 0 -49 -150 -49 -150 -324 0 c-305 0 -324 1 -317 18 3 9 176 425 383
924 l377 908 349 -3 348 -2 369 -885z m1229 195 l0 -695 495 0 495 0 0 -230 0
-230 -810 0 -810 0 0 925 0 925 315 0 315 0 0 -695z m2910 465 l0 -230 -320 0
-320 0 0 -695 0 -695 -320 0 -320 0 0 695 0 695 -320 0 -320 0 0 230 0 230
960 0 960 0 0 -230z"/>
<path d="M8074 3950 c-164 -24 -278 -137 -320 -317 -20 -88 -21 -303 -1 -399
47 -221 203 -335 442 -321 113 6 188 33 254 93 94 85 133 210 134 434 0 152
-17 242 -60 322 -54 99 -157 167 -283 187 -72 12 -91 12 -166 1z"/>
<path d="M2016 3553 c-58 -175 -106 -321 -106 -325 0 -5 99 -8 220 -8 l219 0
-110 322 c-60 177 -111 323 -113 325 -1 2 -51 -140 -110 -314z"/>
</g>
</svg>
