<?xml version="1.0" standalone="no"?>
<!DOCTYPE svg PUBLIC "-//W3C//DTD SVG 20010904//EN"
 "http://www.w3.org/TR/2001/REC-SVG-20010904/DTD/svg10.dtd">
<svg version="1.0" xmlns="http://www.w3.org/2000/svg"
 width="60" height="30" viewBox="0 0 2560.000000 1536.000000"
 preserveAspectRatio="xMidYMid meet">

<g transform="translate(0.000000,1536.000000) scale(0.100000,-0.100000)"
fill="#606060" stroke="none">
<path d="M7480 15194 c-1395 -49 -2726 -470 -3886 -1229 -742 -486 -1405
-1110 -1936 -1825 -791 -1063 -1287 -2315 -1437 -3625 -61 -533 -67 -1096 -15
-1620 199 -2029 1212 -3892 2812 -5168 587 -469 1243 -848 1942 -1124 700
-276 1402 -437 2200 -505 241 -20 955 -17 1200 5 886 82 1650 278 2435 624
1024 453 1989 1175 2704 2024 45 53 81 99 81 103 0 3 -348 6 -772 6 l-773 0
-51 63 c-116 142 -249 324 -373 507 l-132 195 1330 3 1330 2 29 43 c83 120
412 733 412 766 0 8 -546 12 -1775 13 l-1776 3 -43 95 c-81 179 -266 656 -266
686 0 2 941 4 2090 4 l2090 0 11 28 c24 63 112 365 146 501 20 80 39 150 43
154 4 4 26 -18 50 -50 108 -143 303 -299 471 -377 193 -89 358 -125 606 -133
142 -4 209 -2 305 12 128 18 459 82 468 91 6 7 39 198 35 202 -2 2 -39 -3 -82
-12 -279 -56 -542 -66 -753 -28 -272 49 -508 164 -688 336 -85 80 -194 232
-255 352 -121 242 -183 517 -194 869 -27 857 256 1587 787 2028 54 45 32 38
-81 -26 -129 -73 -242 -163 -366 -290 l-112 -116 -35 14 c-20 8 -40 15 -46 15
-23 0 -138 -266 -194 -451 -31 -103 -83 -314 -101 -409 -13 -69 -13 -69 -48
-59 -17 5 -59 9 -92 9 -205 0 -338 -210 -450 -710 -32 -143 -60 -303 -208
-1205 l-52 -320 -412 -3 c-262 -1 -413 1 -413 7 0 6 97 612 215 1348 119 736
229 1424 245 1528 17 105 33 202 36 218 l6 27 374 0 c206 0 374 -3 374 -7 0
-5 -16 -102 -35 -218 -18 -115 -33 -211 -31 -212 1 -2 29 37 61 85 73 108 219
255 303 306 110 66 161 80 295 79 l118 -1 -5 27 c-3 14 -22 113 -42 219 l-36
192 -2309 0 c-1841 0 -2309 3 -2309 13 0 16 86 365 111 452 11 39 38 127 60
198 l40 127 2094 0 2094 0 -40 113 c-57 160 -184 474 -240 595 l-48 102 -1765
0 c-1186 0 -1766 3 -1766 10 0 29 207 420 342 648 l79 132 1334 0 c734 0 1335
4 1335 8 0 28 -280 427 -463 660 l-120 152 -739 0 -740 0 43 52 c140 166 470
498 661 664 l48 41 -133 115 c-1265 1092 -2798 1726 -4442 1837 -167 12 -618
20 -765 15z m-4776 -5716 c5 -24 37 -1969 36 -2187 0 -70 4 -121 9 -115 7 8
737 2167 772 2282 l12 42 639 0 c434 0 638 -3 638 -10 0 -19 -630 -3813 -633
-3817 -2 -2 -188 -2 -413 -1 l-409 3 222 1400 c122 770 224 1414 227 1430 11
60 -14 -5 -172 -450 -126 -352 -797 -2228 -844 -2357 l-10 -28 -279 0 -279 0
0 88 c-1 164 -68 2753 -72 2757 -4 4 -27 -134 -318 -1855 -88 -520 -162 -955
-165 -967 l-5 -23 -385 0 c-346 0 -385 2 -385 16 0 9 135 818 299 1797 164
980 306 1829 316 1887 9 58 18 111 20 118 4 9 130 12 589 12 l586 0 4 -22z
m7773 -260 c-4 -24 -22 -130 -40 -235 l-34 -193 198 0 c178 0 199 -2 199 -17
0 -20 -88 -677 -96 -715 l-6 -28 -212 0 -212 0 -22 -137 c-56 -350 -202 -1261
-206 -1283 -8 -44 15 -120 45 -155 59 -67 187 -92 351 -69 56 8 103 13 104 11
4 -3 -96 -680 -100 -685 -8 -7 -151 -45 -261 -68 -166 -35 -409 -44 -519 -20
-117 26 -222 84 -294 160 -155 166 -196 386 -143 776 51 387 195 1286 312
1955 67 387 130 729 135 737 3 4 186 8 406 8 l401 0 -6 -42z m1893 -365 c456
-72 763 -377 861 -856 45 -221 34 -430 -44 -857 l-32 -175 -820 -5 -820 -5 -3
-80 c-11 -254 134 -441 398 -514 276 -77 664 -35 1068 116 52 19 96 32 100 29
3 -4 -26 -177 -64 -386 l-69 -380 -52 -20 c-179 -67 -483 -110 -778 -110 -304
0 -540 47 -750 150 -231 113 -410 293 -520 525 -184 389 -189 1000 -11 1512
172 494 512 873 911 1016 183 65 387 78 625 40z m-5990 -21 c52 -12 127 -32
165 -45 346 -119 539 -378 574 -769 9 -102 8 -114 -145 -1193 -85 -599 -157
-1105 -160 -1122 l-6 -33 -355 0 -355 0 6 53 c3 28 8 88 11 132 3 44 8 91 11
105 5 20 -10 10 -73 -51 -176 -170 -376 -262 -629 -290 -232 -25 -445 29 -611
155 -209 158 -314 463 -283 820 51 585 396 928 1060 1053 77 15 147 18 375 18
154 -1 292 -4 307 -8 25 -7 27 -5 38 46 7 28 10 95 9 148 -4 86 -7 101 -34
145 -40 63 -108 99 -230 121 -112 19 -495 13 -653 -11 -135 -20 -313 -61 -401
-91 -39 -13 -71 -22 -71 -19 0 27 114 681 120 687 11 12 170 64 280 92 261 66
430 85 720 81 193 -3 252 -7 330 -24z m2525 8 c179 -17 325 -41 325 -54 0 -21
-98 -697 -102 -701 -1 -1 -79 4 -173 12 -231 20 -524 22 -595 4 -161 -41 -227
-118 -218 -256 7 -120 71 -176 338 -299 180 -83 274 -141 363 -225 122 -114
194 -247 233 -427 23 -110 23 -368 0 -487 -77 -398 -319 -639 -740 -737 -124
-29 -256 -40 -475 -40 -328 0 -590 23 -791 71 -72 16 -90 24 -90 39 0 25 100
683 104 688 3 2 53 -10 113 -27 238 -66 470 -97 673 -88 270 11 389 74 420
221 20 98 -15 177 -109 249 -27 21 -135 83 -241 137 -202 105 -245 132 -349
214 -130 102 -229 255 -272 421 -26 101 -36 308 -20 425 32 237 102 397 240
543 181 190 440 299 791 331 72 6 455 -3 575 -14z" fill="#00000"/>
<path d="M11968 8131 c-83 -27 -138 -63 -199 -129 -82 -88 -148 -228 -173
-365 l-7 -37 448 2 448 3 3 85 c8 217 -64 369 -203 432 -70 31 -235 36 -317 9z"/>
<path d="M5871 7069 c-187 -17 -336 -71 -428 -153 -164 -148 -178 -446 -25
-563 136 -103 372 -78 524 56 131 116 247 391 248 588 0 59 -1 62 -27 67 -59
11 -202 14 -292 5z"/>
<path d="M23645 9260 c-4 -6 -27 -159 -51 -339 l-44 -328 80 -82 c44 -46 80
-80 80 -75 0 4 29 190 65 412 36 223 64 406 63 407 -2 2 -44 6 -94 10 -66 5
-94 4 -99 -5z"/>
<path d="M16797 8760 c-71 -12 -184 -48 -242 -77 -123 -62 -263 -180 -350
-293 -62 -82 -63 -86 -4 -43 304 226 698 232 1128 17 69 -35 127 -61 129 -59
9 9 52 319 45 325 -16 15 -191 79 -268 99 -156 39 -321 50 -438 31z"/>
<path d="M17965 8524 c-129 -35 -244 -74 -251 -85 -6 -10 -121 -689 -117 -689
2 0 58 15 126 34 202 57 338 79 577 96 254 18 464 -2 566 -53 59 -30 77 -49
103 -108 l21 -46 165 -7 c91 -4 172 -9 180 -12 21 -8 38 87 34 197 -4 86 -7
101 -34 145 -40 63 -108 99 -230 121 -112 19 -495 13 -653 -11 -135 -20 -313
-61 -401 -91 -39 -13 -71 -22 -71 -19 0 3 20 126 45 274 25 148 45 271 45 274
0 8 -4 7 -105 -20z"/>
<path d="M20280 8533 c0 -4 -22 -147 -50 -318 -69 -432 -132 -859 -255 -1730
-127 -899 -113 -815 -136 -815 -13 0 -20 -10 -23 -32 -3 -18 -10 -62 -16 -98
-6 -36 -13 -77 -16 -92 l-6 -28 416 0 416 0 5 23 c7 31 25 175 25 198 0 18
-11 19 -320 19 -260 0 -320 2 -320 13 0 15 446 2794 456 2840 l6 27 -91 0
c-50 0 -91 -3 -91 -7z"/>
<path d="M22025 8373 c-75 -54 -223 -209 -283 -296 -50 -72 -59 -93 -76 -169
-6 -25 -8 -26 -38 -17 -59 16 -154 11 -203 -12 -100 -47 -197 -192 -264 -397
-17 -51 -31 -96 -31 -99 0 -3 32 29 71 71 50 53 89 84 132 106 61 30 167 51
167 34 0 -5 -9 -36 -19 -69 -110 -352 -146 -885 -81 -1207 60 -293 179 -528
354 -696 172 -165 368 -242 613 -242 264 0 506 98 701 284 23 22 42 38 42 35
0 -3 -7 -59 -15 -124 -8 -66 -15 -126 -15 -132 0 -10 85 -13 393 -13 l393 0
17 108 c10 59 17 113 17 120 0 9 -68 12 -305 12 -238 0 -305 3 -305 13 0 6 7
59 15 117 23 166 25 162 -48 94 -243 -228 -604 -321 -922 -239 -145 38 -333
156 -431 272 -146 174 -252 411 -300 678 -25 136 -30 439 -10 609 48 417 206
829 425 1111 48 61 65 85 59 85 -2 0 -25 -17 -53 -37z"/>
<path d="M22973 8055 c-87 -19 -172 -67 -242 -136 -55 -53 -131 -153 -131
-172 0 -4 19 3 43 17 86 51 210 68 319 45 156 -33 245 -133 299 -335 31 -114
38 -388 14 -539 -18 -119 -60 -262 -106 -364 -16 -35 -29 -66 -29 -68 0 -2 16
8 36 23 96 74 218 282 269 459 43 151 58 257 58 425 0 364 -91 568 -283 633
-69 23 -175 29 -247 12z"/>
<path d="M17794 7276 c-288 -137 -474 -356 -554 -650 -12 -42 -20 -81 -18 -86
2 -6 31 3 66 20 57 27 62 28 62 10 0 -10 -25 -169 -55 -354 l-55 -336 20 -53
c81 -216 272 -380 510 -437 160 -38 399 -23 569 35 130 44 290 142 361 220 22
25 23 27 5 21 -133 -50 -396 -65 -540 -32 -100 23 -222 79 -302 140 -210 159
-314 462 -283 822 24 275 118 504 276 672 28 28 45 52 40 52 -6 0 -52 -20
-102 -44z"/>
<path d="M18921 7069 c-237 -22 -425 -109 -495 -229 l-19 -33 44 6 c80 12 285
20 322 13 l37 -7 0 -60 c0 -120 -38 -298 -86 -408 -13 -30 -22 -56 -20 -59 12
-11 112 13 173 43 88 42 150 98 212 190 83 125 150 334 151 472 0 59 -1 62
-27 67 -59 11 -202 14 -292 5z"/>
<path d="M19109 5914 c-70 -72 -194 -159 -282 -199 l-57 -26 0 -130 0 -129
355 0 354 0 6 33 c14 87 25 164 25 185 l0 22 -181 0 -180 0 6 68 c3 37 10 105
14 152 4 47 7 86 6 87 0 1 -30 -27 -66 -63z"/>
</g>
</svg>
