<svg width="80" height="30" viewBox="0 0 50 30" fill="none" xmlns="http://www.w3.org/2000/svg">
<path d="M30.8215 3.20117H17.7051V26.7819H30.8215V3.20117Z" fill="#FF5F00"/>
<path d="M18.5361 15.0008C18.534 12.7299 19.0483 10.4883 20.0401 8.44558C21.0319 6.40289 22.4751 4.61268 24.2606 3.21042C22.049 1.4705 19.3927 0.388254 16.5953 0.0874C13.798 -0.213454 10.9724 0.279226 8.4417 1.50912C5.911 2.73901 3.77729 4.65648 2.28448 7.04232C0.791665 9.42815 0 12.1861 0 15.0008C0 17.8155 0.791665 20.5734 2.28448 22.9593C3.77729 25.3451 5.911 27.2626 8.4417 28.4925C10.9724 29.7224 13.798 30.215 16.5953 29.9142C19.3927 29.6133 22.049 28.5311 24.2606 26.7912C22.4766 25.3876 21.0345 23.5971 20.0429 21.5547C19.0512 19.5123 18.536 17.2714 18.5361 15.0008Z" fill="#EB001B"/>
<path d="M48.5183 15.0007C48.5168 17.8143 47.7243 20.5708 46.2314 22.9553C44.7384 25.3397 42.6052 27.256 40.0754 28.4852C37.5456 29.7144 34.7212 30.2069 31.9249 29.9066C29.1285 29.6062 26.473 28.525 24.2617 26.7865C26.0458 25.383 27.488 23.5925 28.4797 21.5501C29.4714 19.5077 29.9867 17.2668 29.9867 14.9962C29.9867 12.7256 29.4714 10.4846 28.4797 8.4422C27.488 6.39983 26.0458 4.60935 24.2617 3.20578C26.4752 1.46562 29.1336 0.384065 31.9328 0.0848826C34.7319 -0.2143 37.5588 0.280983 40.0897 1.51405C42.6207 2.74711 44.7535 4.66814 46.2441 7.05727C47.7347 9.4464 48.5228 12.2071 48.5183 15.0234V15.0007Z" fill="#F79E1B"/>
<path d="M47.0787 24.2865V23.8002H47.2741V23.7047H46.7832V23.8047H46.9832V24.2865H47.0787ZM48.0377 24.2865V23.7002H47.9104L47.7332 24.1184L47.5605 23.7002H47.4059V24.2865H47.4923V23.832L47.6559 24.2138H47.7695L47.9286 23.832V24.2865H48.0377Z" fill="#F79E1B"/>
</svg>
