<?xml version="1.0" encoding="UTF-8"?>
<svg xmlns="http://www.w3.org/2000/svg" xmlns:xlink="http://www.w3.org/1999/xlink" width="200px" height="95px" viewBox="0 0 200 95" version="1.1">
<g id="surface1">
<path style=" stroke:none;fill-rule:nonzero;fill:rgb(84.313725%,84.313725%,84.313725%);fill-opacity:1;" d="M 37.070312 58.460938 C 37.230469 58.519531 37.402344 58.535156 37.570312 58.511719 L 43.839844 58.511719 C 44.195312 58.507812 44.550781 58.53125 44.90625 58.578125 C 47.535156 58.980469 48.574219 60.765625 48.371094 63.171875 C 48.148438 65.785156 46.480469 67.265625 43.839844 67.320312 C 43.109375 67.320312 42.378906 67.320312 41.648438 67.320312 C 41.351562 67.320312 41.265625 67.414062 41.269531 67.710938 C 41.269531 69.105469 41.269531 70.496094 41.269531 71.890625 C 41.234375 72.242188 41.339844 72.589844 41.5625 72.863281 C 41.785156 73.136719 42.109375 73.308594 42.460938 73.339844 C 42.636719 73.375 42.816406 73.390625 42.988281 73.410156 C 43.164062 73.429688 43.128906 73.550781 43.136719 73.664062 C 43.140625 73.78125 43.074219 73.839844 42.964844 73.84375 L 37.066406 73.84375 L 37.066406 73.34375 C 38.503906 73.398438 38.828125 73.089844 38.824219 71.664062 C 38.824219 68.019531 38.824219 64.371094 38.824219 60.726562 C 38.824219 59.425781 38.394531 59.015625 37.085938 59.046875 Z M 42.179688 59 C 41.984375 59 41.789062 59 41.59375 59 C 41.398438 59 41.230469 59.058594 41.234375 59.351562 C 41.253906 61.683594 41.253906 64.015625 41.234375 66.351562 C 41.234375 66.585938 41.28125 66.699219 41.550781 66.703125 C 42.328125 66.753906 43.105469 66.6875 43.863281 66.511719 C 44.808594 66.300781 45.539062 65.554688 45.726562 64.605469 C 45.890625 63.792969 45.933594 62.964844 45.84375 62.140625 C 45.792969 61.257812 45.414062 60.425781 44.773438 59.816406 C 44.050781 59.113281 43.125 59.054688 42.179688 59 Z M 42.179688 59 "/>
<path style=" stroke:none;fill-rule:nonzero;fill:rgb(84.313725%,84.313725%,84.313725%);fill-opacity:1;" d="M 72.074219 64.558594 C 74.164062 61.703125 77.574219 61.710938 78.789062 64.40625 C 78.941406 64.34375 78.976562 64.191406 79.054688 64.074219 C 80.082031 62.644531 81.925781 62.054688 83.59375 62.625 C 84.75 63 85.550781 64.054688 85.59375 65.269531 C 85.710938 67.359375 85.691406 69.449219 85.671875 71.539062 C 85.671875 72.496094 85.988281 72.890625 86.929688 73.039062 C 87.058594 73.039062 87.238281 72.988281 87.230469 73.238281 C 87.21875 73.488281 87.054688 73.429688 86.914062 73.429688 L 82.050781 73.429688 C 81.933594 73.429688 81.773438 73.488281 81.75 73.285156 C 81.726562 73.078125 81.871094 73.070312 82.023438 73.046875 C 82.953125 72.898438 83.175781 72.628906 83.175781 71.695312 C 83.175781 69.667969 83.175781 67.640625 83.175781 65.613281 C 83.183594 65.234375 83.125 64.859375 83 64.5 C 82.839844 63.949219 82.414062 63.515625 81.871094 63.339844 C 81.324219 63.164062 80.726562 63.273438 80.273438 63.625 C 79.511719 64.152344 79.046875 65.007812 79.015625 65.933594 C 78.894531 67.976562 78.96875 70.019531 79.015625 72.058594 C 79.015625 72.691406 79.335938 72.925781 80.015625 72.980469 C 80.183594 72.980469 80.421875 72.890625 80.421875 73.230469 C 80.421875 73.570312 80.179688 73.46875 80.015625 73.476562 C 78.457031 73.476562 76.902344 73.476562 75.34375 73.476562 C 75.210938 73.476562 75.003906 73.574219 74.980469 73.300781 C 74.953125 73.023438 75.183594 73.085938 75.339844 73.070312 C 75.839844 73.042969 76.253906 72.675781 76.339844 72.183594 C 76.410156 71.867188 76.441406 71.542969 76.425781 71.21875 C 76.425781 69.4375 76.425781 67.652344 76.425781 65.871094 C 76.429688 65.496094 76.382812 65.125 76.285156 64.765625 C 76.152344 64.125 75.675781 63.609375 75.042969 63.429688 C 74.414062 63.25 73.734375 63.433594 73.285156 63.910156 C 72.496094 64.632812 72.054688 65.664062 72.078125 66.734375 C 72.078125 68.40625 72.078125 70.074219 72.078125 71.734375 C 72.078125 72.605469 72.296875 72.851562 73.15625 72.988281 C 73.265625 73.015625 73.378906 73.03125 73.488281 73.039062 C 73.660156 73.039062 73.703125 73.121094 73.703125 73.28125 C 73.703125 73.441406 73.589844 73.476562 73.449219 73.476562 L 71.308594 73.476562 C 70.371094 73.476562 69.429688 73.476562 68.488281 73.476562 C 68.335938 73.476562 68.109375 73.570312 68.109375 73.261719 C 68.109375 72.949219 68.324219 73.085938 68.460938 73.074219 C 68.832031 73.09375 69.191406 72.949219 69.445312 72.675781 C 69.699219 72.402344 69.820312 72.035156 69.773438 71.664062 C 69.773438 69.363281 69.773438 67.058594 69.773438 64.761719 C 69.773438 63.796875 69.46875 63.460938 68.511719 63.34375 C 68.351562 63.34375 68.078125 63.449219 68.085938 63.109375 C 68.089844 62.769531 68.351562 62.886719 68.515625 62.871094 C 69.566406 62.773438 70.613281 62.703125 71.664062 62.605469 C 71.945312 62.574219 72.039062 62.636719 72.023438 62.925781 C 72.058594 63.421875 72.074219 63.941406 72.074219 64.558594 Z M 72.074219 64.558594 "/>
<path style=" stroke:none;fill-rule:nonzero;fill:rgb(84.313725%,84.313725%,84.313725%);fill-opacity:1;" d="M 117.5 29.5 C 117.222656 30.019531 116.90625 30.523438 116.558594 31 C 111.722656 38.511719 106.890625 46.019531 102.058594 53.53125 C 101.84375 53.863281 101.65625 54.261719 101.144531 54.179688 C 101.253906 53.699219 101.398438 53.230469 101.570312 52.769531 C 101.585938 52.765625 101.597656 52.753906 101.609375 52.738281 L 101.640625 52.703125 C 101.699219 52.652344 101.75 52.589844 101.789062 52.519531 C 102.378906 51.136719 102.960938 49.75 103.550781 48.363281 C 105.265625 44.347656 106.984375 40.332031 108.703125 36.316406 C 109.59375 34.234375 110.476562 32.144531 111.355469 30.058594 Z M 117.5 29.5 "/>
<path style=" stroke:none;fill-rule:nonzero;fill:rgb(84.313725%,84.313725%,84.313725%);fill-opacity:1;" d="M 125 64.75 C 125.644531 64.875 126.277344 65.042969 126.898438 65.25 C 128.445312 65.753906 129.492188 67.195312 129.488281 68.820312 C 129.609375 70.511719 128.59375 72.074219 127 72.648438 C 126.21875 72.976562 125.382812 73.148438 124.535156 73.148438 C 122.316406 73.148438 120.09375 73.148438 117.875 73.148438 C 117.75 73.148438 117.546875 73.246094 117.523438 73.019531 C 117.503906 72.796875 117.730469 72.871094 117.851562 72.84375 C 118.664062 72.671875 118.851562 72.5 118.941406 71.660156 C 118.96875 71.371094 118.980469 71.078125 118.976562 70.785156 C 118.976562 67.089844 118.976562 63.398438 118.976562 59.699219 C 118.976562 59.507812 118.96875 59.3125 118.945312 59.121094 C 118.839844 58.363281 118.589844 58.148438 117.828125 58.121094 L 117.441406 58.121094 C 117.316406 58.121094 117.28125 58.035156 117.28125 57.925781 C 117.28125 57.816406 117.28125 57.730469 117.425781 57.71875 L 117.621094 57.71875 C 119.90625 57.71875 122.191406 57.71875 124.476562 57.761719 C 125.222656 57.761719 125.960938 57.894531 126.664062 58.144531 C 127.933594 58.585938 128.769531 59.800781 128.730469 61.144531 C 128.855469 62.488281 128.039062 63.746094 126.761719 64.175781 C 126.214844 64.378906 125.636719 64.539062 125 64.75 Z M 120.71875 68.859375 C 120.71875 69.976562 120.71875 71.09375 120.71875 72.214844 C 120.71875 72.398438 120.660156 72.605469 120.984375 72.605469 C 122.136719 72.652344 123.289062 72.632812 124.433594 72.546875 C 126.109375 72.425781 127.414062 71.039062 127.433594 69.359375 C 127.433594 69.113281 127.433594 68.859375 127.433594 68.628906 C 127.433594 66.761719 126.578125 65.664062 124.746094 65.253906 C 123.539062 64.984375 122.324219 65.144531 121.109375 65.085938 C 120.726562 65.085938 120.660156 65.210938 120.664062 65.554688 C 120.714844 66.660156 120.703125 67.761719 120.703125 68.863281 Z M 120.71875 61.300781 L 120.683594 61.300781 C 120.683594 62.238281 120.683594 63.179688 120.683594 64.121094 C 120.683594 64.339844 120.683594 64.484375 120.984375 64.480469 C 122.070312 64.515625 123.152344 64.496094 124.234375 64.414062 C 125.820312 64.328125 127.050781 63 127.019531 61.414062 C 127.074219 59.730469 126.136719 58.585938 124.421875 58.261719 C 123.28125 58.046875 122.125 58.191406 120.980469 58.144531 C 120.695312 58.144531 120.726562 58.316406 120.726562 58.488281 C 120.707031 59.429688 120.699219 60.367188 120.699219 61.304688 Z M 120.71875 61.300781 "/>
<path style=" stroke:none;fill-rule:nonzero;fill:rgb(84.313725%,84.313725%,84.313725%);fill-opacity:1;" d="M 100.148438 19.265625 L 106.148438 17.070312 C 106.238281 17.039062 106.34375 17.035156 106.386719 16.925781 C 106.53125 17.164062 106.386719 17.378906 106.308594 17.589844 C 104.539062 23.710938 102.769531 29.828125 101 35.945312 C 100.945312 36.3125 100.820312 36.664062 100.628906 36.984375 C 100.128906 36.894531 100.378906 36.484375 100.261719 36.199219 C 100.398438 36.070312 100.34375 35.894531 100.34375 35.738281 C 100.34375 34.738281 100.289062 33.738281 100.28125 32.738281 C 100.214844 28.25 100.273438 23.753906 100.148438 19.265625 Z M 100.148438 19.265625 "/>
<path style=" stroke:none;fill-rule:nonzero;fill:rgb(62.745098%,62.745098%,62.745098%);fill-opacity:1;" d="M 101.550781 52.796875 C 101.378906 53.253906 101.234375 53.726562 101.125 54.203125 C 100.625 54.054688 100.523438 53.84375 100.65625 53.246094 L 101.554688 49.121094 L 106.769531 25.160156 C 106.808594 24.96875 106.855469 24.78125 106.898438 24.59375 C 107.121094 24.679688 107.191406 24.890625 107.285156 25.09375 C 107.90625 26.285156 108.511719 27.488281 109.140625 28.675781 C 109.292969 28.941406 109.320312 29.261719 109.210938 29.550781 C 107.070312 36.070312 104.929688 42.597656 102.785156 49.136719 C 102.390625 50.335938 102.003906 51.535156 101.621094 52.734375 L 101.589844 52.769531 Z M 101.550781 52.796875 "/>
<path style=" stroke:none;fill-rule:nonzero;fill:rgb(84.313725%,84.313725%,84.313725%);fill-opacity:1;" d="M 93.050781 25.394531 C 93.925781 28.222656 94.804688 31.054688 95.683594 33.894531 C 96.796875 37.496094 97.910156 41.097656 99.019531 44.699219 C 99.050781 44.789062 99.058594 44.890625 99.078125 44.980469 C 98.933594 45.109375 99.023438 45.148438 99.148438 45.175781 L 99.285156 45.675781 C 99.191406 45.75 99.261719 45.753906 99.324219 45.761719 C 99.410156 45.914062 99.457031 46.085938 99.46875 46.261719 C 99.335938 46.386719 99.421875 46.433594 99.546875 46.46875 L 99.546875 46.691406 C 99.355469 46.664062 99.191406 46.546875 99.109375 46.375 C 98.980469 46.167969 98.835938 45.96875 98.679688 45.78125 C 98.683594 45.699219 98.644531 45.621094 98.574219 45.578125 L 98.476562 45.480469 C 98.480469 45.394531 98.445312 45.3125 98.375 45.265625 C 98.375 45.265625 98.375 45.21875 98.375 45.195312 C 98.253906 44.964844 98.144531 44.730469 98.019531 44.503906 L 94.238281 37.800781 C 93.273438 36.085938 92.289062 34.378906 91.351562 32.648438 C 90.800781 31.648438 90.164062 30.691406 89.714844 29.648438 C 90.183594 29.035156 90.644531 28.414062 91.136719 27.816406 C 91.730469 26.976562 92.371094 26.167969 93.050781 25.394531 Z M 93.050781 25.394531 "/>
<path style=" stroke:none;fill-rule:nonzero;fill:rgb(76.862745%,76.862745%,76.862745%);fill-opacity:1;" d="M 101.621094 52.734375 C 102.011719 51.535156 102.398438 50.335938 102.785156 49.136719 C 104.929688 42.597656 107.066406 36.0625 109.199219 29.523438 C 109.308594 29.238281 109.285156 28.917969 109.128906 28.648438 C 108.5 27.464844 107.894531 26.261719 107.273438 25.070312 C 107.179688 24.890625 107.109375 24.679688 106.890625 24.570312 C 107.007812 24.289062 107.234375 24.070312 107.519531 23.964844 C 107.800781 23.859375 108.117188 23.875 108.390625 24.011719 L 117 27.871094 C 117.15625 27.941406 117.34375 27.960938 117.449219 28.128906 C 115.726562 28.164062 114 28.203125 112.273438 28.234375 C 111.90625 28.234375 111.535156 28.269531 111.171875 28.304688 C 110.804688 28.339844 110.835938 28.453125 110.914062 28.710938 C 111.101562 29.15625 111.246094 29.617188 111.34375 30.089844 C 110.460938 32.175781 109.585938 34.261719 108.695312 36.34375 C 106.976562 40.363281 105.261719 44.378906 103.539062 48.394531 C 102.949219 49.78125 102.371094 51.164062 101.78125 52.550781 C 101.734375 52.617188 101.683594 52.679688 101.621094 52.734375 Z M 101.621094 52.734375 "/>
<path style=" stroke:none;fill-rule:nonzero;fill:rgb(84.313725%,84.313725%,84.313725%);fill-opacity:1;" d="M 94.5 71.851562 C 93.675781 73.023438 92.292969 73.667969 90.863281 73.550781 C 88.519531 73.511719 87.609375 72.019531 87.933594 69.949219 C 88.15625 68.554688 89.433594 67.53125 91.105469 67.308594 C 92.105469 67.179688 93.105469 67.074219 94.105469 66.988281 C 94.429688 66.960938 94.535156 66.851562 94.535156 66.519531 C 94.585938 65.792969 94.585938 65.0625 94.535156 64.335938 C 94.484375 63.703125 94.097656 63.144531 93.523438 62.875 C 92.949219 62.601562 92.273438 62.660156 91.753906 63.023438 C 91.386719 63.246094 91.144531 63.628906 91.101562 64.054688 C 91.058594 64.296875 91.058594 64.554688 91.035156 64.78125 C 91.023438 65.316406 90.65625 65.78125 90.136719 65.914062 C 89.605469 66.066406 89.035156 65.894531 88.675781 65.476562 C 88.382812 65.046875 88.402344 64.476562 88.730469 64.070312 C 89.277344 63.269531 90.128906 62.726562 91.085938 62.570312 C 92.238281 62.296875 93.4375 62.25 94.609375 62.429688 C 95.746094 62.570312 96.640625 63.460938 96.785156 64.59375 C 96.828125 64.898438 96.847656 65.207031 96.84375 65.515625 C 96.84375 67.394531 96.84375 69.273438 96.84375 71.15625 C 96.84375 72.316406 97.066406 72.621094 98.179688 72.953125 C 98.300781 72.988281 98.394531 73.015625 98.394531 73.164062 C 98.394531 73.316406 98.320312 73.335938 98.210938 73.328125 C 97.402344 73.363281 96.589844 73.335938 95.785156 73.253906 C 95 73.128906 94.695312 72.605469 94.5 71.851562 Z M 94.558594 68.851562 C 94.558594 68.511719 94.558594 68.171875 94.558594 67.851562 C 94.558594 67.59375 94.488281 67.476562 94.195312 67.488281 C 93.691406 67.503906 93.191406 67.558594 92.695312 67.644531 C 90.988281 68.003906 90.164062 69.144531 90.339844 70.871094 C 90.339844 71.078125 90.378906 71.289062 90.421875 71.496094 C 90.535156 72.234375 91.171875 72.785156 91.921875 72.789062 C 92.804688 72.851562 93.636719 72.371094 94.03125 71.578125 C 94.480469 70.746094 94.660156 69.789062 94.535156 68.851562 Z M 94.558594 68.851562 "/>
<path style=" stroke:none;fill-rule:nonzero;fill:rgb(84.313725%,84.313725%,84.313725%);fill-opacity:1;" d="M 112.445312 71.90625 C 111.539062 73.164062 110.285156 73.574219 108.855469 73.554688 C 106.574219 73.519531 105.605469 72.101562 105.90625 70.011719 C 106.109375 68.589844 107.40625 67.539062 109.074219 67.316406 C 110.074219 67.179688 111.101562 67.078125 112.121094 66.984375 C 112.390625 66.960938 112.515625 66.886719 112.511719 66.578125 C 112.566406 65.820312 112.566406 65.058594 112.511719 64.300781 C 112.441406 63.664062 112.035156 63.113281 111.445312 62.859375 C 110.855469 62.605469 110.175781 62.6875 109.664062 63.074219 C 109.316406 63.324219 109.097656 63.714844 109.070312 64.144531 C 109.039062 64.398438 109.035156 64.644531 109 64.921875 C 108.925781 65.507812 108.433594 65.953125 107.839844 65.960938 C 107.34375 66.023438 106.855469 65.792969 106.585938 65.371094 C 106.367188 64.957031 106.414062 64.453125 106.703125 64.085938 C 107.167969 63.375 107.882812 62.871094 108.703125 62.671875 C 109.894531 62.324219 111.140625 62.238281 112.363281 62.410156 C 113.945312 62.625 114.773438 63.566406 114.796875 65.164062 C 114.796875 66.980469 114.796875 68.796875 114.796875 70.609375 C 114.796875 70.886719 114.796875 71.160156 114.796875 71.433594 C 114.730469 72.183594 115.269531 72.847656 116.015625 72.933594 C 116.171875 72.96875 116.375 72.933594 116.328125 73.195312 C 116.285156 73.453125 116.09375 73.316406 115.964844 73.320312 C 115.53125 73.320312 115.089844 73.320312 114.648438 73.320312 C 113.316406 73.335938 113.066406 73.179688 112.445312 71.90625 Z M 112.539062 68.855469 C 112.539062 68.515625 112.539062 68.175781 112.539062 67.855469 C 112.539062 67.601562 112.480469 67.476562 112.179688 67.496094 C 111.613281 67.511719 111.050781 67.578125 110.496094 67.699219 C 108.953125 68.09375 108.246094 69.039062 108.308594 70.628906 C 108.320312 70.90625 108.347656 71.179688 108.390625 71.449219 C 108.484375 72.226562 109.144531 72.804688 109.925781 72.800781 C 110.773438 72.84375 111.570312 72.390625 111.964844 71.636719 C 112.453125 70.792969 112.652344 69.820312 112.539062 68.855469 Z M 112.539062 68.855469 "/>
<path style=" stroke:none;fill-rule:nonzero;fill:rgb(62.745098%,62.745098%,62.745098%);fill-opacity:1;" d="M 98.695312 45.738281 C 98.851562 45.929688 98.996094 46.128906 99.125 46.335938 C 99.207031 46.507812 99.371094 46.625 99.558594 46.648438 C 99.636719 46.910156 99.488281 47.050781 99.285156 47.148438 C 99.085938 47.242188 98.84375 47.175781 98.71875 46.996094 C 98.414062 46.660156 98.121094 46.316406 97.820312 45.996094 C 93.125 40.660156 88.425781 35.328125 83.730469 29.996094 C 83.414062 29.636719 83.523438 29.246094 83.539062 28.851562 C 83.625 28.851562 83.699219 28.816406 83.648438 28.699219 C 84.933594 28.785156 86.21875 28.875 87.503906 28.945312 C 88.078125 28.976562 88.15625 29.03125 88.003906 29.601562 C 87.890625 30.007812 87.972656 30.445312 88.230469 30.785156 C 90.15625 33.554688 92.074219 36.328125 93.980469 39.109375 L 97.980469 44.890625 C 98.085938 45.039062 98.175781 45.191406 98.378906 45.203125 C 98.378906 45.203125 98.378906 45.25 98.378906 45.273438 C 98.363281 45.359375 98.402344 45.449219 98.480469 45.488281 L 98.578125 45.589844 C 98.589844 45.65625 98.632812 45.714844 98.695312 45.738281 Z M 98.695312 45.738281 "/>
<path style=" stroke:none;fill-rule:nonzero;fill:rgb(84.313725%,84.313725%,84.313725%);fill-opacity:1;" d="M 54.714844 68 C 53.660156 68 52.605469 68 51.554688 68 C 51.40625 68 51.164062 67.90625 51.191406 68.21875 C 51.28125 69.363281 51.300781 70.523438 51.863281 71.574219 C 52.863281 73.386719 54.730469 73.800781 56.363281 72.574219 C 56.875 72.171875 57.320312 71.695312 57.679688 71.15625 C 57.753906 71.050781 57.789062 70.863281 57.996094 71.015625 C 58.199219 71.164062 58.234375 71.234375 58.09375 71.441406 C 56.726562 73.464844 55.445312 74.328125 52.566406 73.941406 C 50.71875 73.683594 49.171875 72.066406 48.746094 70.011719 C 48.535156 69.039062 48.503906 68.039062 48.65625 67.058594 C 48.867188 65.585938 49.714844 64.28125 50.972656 63.480469 C 52.226562 62.683594 53.769531 62.472656 55.195312 62.90625 C 56.695312 63.328125 57.511719 64.363281 58 65.761719 C 58.199219 66.34375 58.308594 66.953125 58.320312 67.570312 C 58.320312 67.90625 58.269531 68.070312 57.875 68.039062 C 56.824219 68 55.769531 68 54.714844 68 Z M 53.414062 67.304688 C 54.078125 67.304688 54.746094 67.304688 55.414062 67.304688 C 55.613281 67.304688 55.75 67.304688 55.765625 67.035156 C 55.867188 65.914062 55.574219 64.789062 54.933594 63.859375 C 54.679688 63.4375 54.246094 63.15625 53.753906 63.101562 C 53.265625 63.042969 52.777344 63.21875 52.433594 63.574219 C 52.148438 63.8125 51.917969 64.113281 51.761719 64.453125 C 51.429688 65.265625 51.234375 66.125 51.191406 67 C 51.191406 67.261719 51.28125 67.296875 51.496094 67.289062 C 52.121094 67.300781 52.765625 67.304688 53.414062 67.304688 Z M 53.414062 67.304688 "/>
<path style=" stroke:none;fill-rule:nonzero;fill:rgb(84.313725%,84.313725%,84.313725%);fill-opacity:1;" d="M 155.976562 68.269531 L 157.359375 66.769531 L 159.703125 64.234375 C 159.890625 64.054688 160.042969 63.84375 160.160156 63.609375 C 160.300781 63.355469 160.304688 63.046875 160.167969 62.792969 C 160.03125 62.535156 159.773438 62.367188 159.484375 62.34375 C 159.273438 62.328125 159.070312 62.261719 158.890625 62.148438 L 163.5 62.148438 C 163.449219 62.214844 163.425781 62.273438 163.398438 62.273438 C 162.601562 62.375 161.875 62.777344 161.363281 63.398438 C 160.601562 64.195312 159.824219 64.976562 159.054688 65.765625 C 158.929688 65.890625 158.800781 65.988281 158.941406 66.210938 C 159.941406 67.804688 160.878906 69.464844 161.988281 71.003906 C 162.453125 71.648438 162.929688 72.304688 163.820312 72.410156 C 163.90625 72.410156 163.980469 72.46875 163.96875 72.566406 C 163.960938 72.660156 163.863281 72.664062 163.785156 72.664062 C 162.976562 72.664062 162.164062 72.664062 161.355469 72.664062 C 161.089844 72.664062 161.050781 72.460938 160.953125 72.304688 C 160 70.746094 159.046875 69.183594 158.101562 67.621094 C 158.011719 67.46875 157.910156 67.320312 157.785156 67.121094 C 157.230469 67.71875 156.695312 68.300781 156.15625 68.875 C 156.074219 68.976562 156.039062 69.105469 156.054688 69.234375 C 156.054688 69.886719 156.054688 70.535156 156.054688 71.179688 C 156.085938 72.109375 156.363281 72.414062 157.273438 72.570312 C 157.375 72.570312 157.515625 72.535156 157.574219 72.738281 L 152.964844 72.738281 C 153.015625 72.519531 153.199219 72.59375 153.324219 72.558594 C 154.066406 72.464844 154.597656 71.804688 154.53125 71.058594 C 154.53125 67.007812 154.53125 62.953125 154.53125 58.898438 C 154.53125 58.164062 154.265625 57.875 153.53125 57.773438 C 153.371094 57.773438 153.210938 57.738281 153.03125 57.726562 C 152.851562 57.710938 152.835938 57.699219 152.839844 57.566406 C 152.84375 57.429688 152.914062 57.433594 153.003906 57.425781 L 155.765625 57.199219 C 156.011719 57.199219 155.960938 57.355469 155.960938 57.488281 C 155.960938 57.945312 155.960938 58.398438 155.960938 58.851562 C 155.976562 61.929688 155.976562 65.03125 155.976562 68.269531 Z M 155.976562 68.269531 "/>
<path style=" stroke:none;fill-rule:nonzero;fill:rgb(62.745098%,62.745098%,62.745098%);fill-opacity:1;" d="M 100.253906 36.199219 C 100.375 36.464844 100.140625 36.894531 100.625 36.984375 C 100.265625 37.390625 100.101562 37.089844 99.984375 36.785156 C 99.589844 35.726562 99.210938 34.660156 98.824219 33.59375 L 93 17.546875 C 92.960938 17.441406 92.941406 17.328125 92.914062 17.21875 C 93.691406 17.34375 94.339844 17.796875 95.066406 18.058594 C 95.984375 18.398438 96.835938 18.90625 97.785156 19.183594 C 97.894531 20.03125 97.996094 20.878906 98.113281 21.726562 C 98.484375 24.253906 98.875 26.785156 99.246094 29.316406 C 99.601562 31.609375 99.925781 33.90625 100.253906 36.199219 Z M 100.253906 36.199219 "/>
<path style=" stroke:none;fill-rule:nonzero;fill:rgb(84.313725%,84.313725%,84.313725%);fill-opacity:1;" d="M 145.691406 72.851562 L 140.789062 72.851562 C 141.050781 72.609375 141.289062 72.65625 141.535156 72.585938 C 142.214844 72.359375 142.503906 72.085938 142.535156 71.363281 C 142.535156 68.804688 142.535156 66.246094 142.535156 63.683594 C 142.554688 63.191406 142.21875 62.753906 141.738281 62.644531 C 141.539062 62.578125 141.335938 62.535156 141.128906 62.480469 C 141.066406 62.480469 141.015625 62.425781 141.015625 62.351562 C 141.015625 62.273438 141.089844 62.253906 141.148438 62.246094 L 143.808594 61.96875 C 144.054688 61.96875 144.003906 62.128906 144.003906 62.265625 C 144.003906 62.894531 144.003906 63.523438 144.003906 64.265625 C 144.285156 63.878906 144.503906 63.570312 144.730469 63.265625 C 145.605469 62.132812 147.03125 61.574219 148.445312 61.808594 C 150.148438 62.019531 151.085938 63.054688 151.121094 64.773438 C 151.160156 66.683594 151.121094 68.601562 151.121094 70.511719 C 151.121094 70.71875 151.121094 70.929688 151.121094 71.140625 C 151.082031 71.492188 151.195312 71.847656 151.433594 72.113281 C 151.667969 72.378906 152.003906 72.535156 152.359375 72.546875 C 152.484375 72.546875 152.613281 72.585938 152.738281 72.609375 C 152.738281 72.609375 152.769531 72.660156 152.816406 72.746094 L 148.230469 72.746094 C 148.34375 72.554688 148.503906 72.578125 148.640625 72.554688 C 149.386719 72.421875 149.589844 72.191406 149.640625 71.421875 C 149.640625 71.09375 149.640625 70.769531 149.640625 70.449219 C 149.640625 68.699219 149.640625 66.949219 149.640625 65.199219 C 149.636719 64.90625 149.609375 64.617188 149.554688 64.328125 C 149.203125 62.449219 147.628906 61.710938 145.976562 62.679688 C 144.769531 63.382812 144.03125 64.679688 144.039062 66.074219 C 143.960938 67.839844 144.003906 69.609375 144.074219 71.375 C 144.0625 71.933594 144.445312 72.421875 144.988281 72.546875 C 145.191406 72.640625 145.429688 72.609375 145.691406 72.851562 Z M 145.691406 72.851562 "/>
<path style=" stroke:none;fill-rule:nonzero;fill:rgb(84.313725%,84.313725%,84.313725%);fill-opacity:1;" d="M 62.660156 64.746094 C 63.078125 64.070312 63.636719 63.488281 64.296875 63.046875 C 65.039062 62.511719 66.027344 62.457031 66.824219 62.910156 C 67.398438 63.242188 67.628906 63.953125 67.363281 64.558594 C 67.09375 65.164062 66.417969 65.472656 65.785156 65.273438 C 65.414062 65.183594 65.136719 64.875 65.085938 64.496094 C 64.949219 63.855469 64.535156 63.695312 63.996094 64.074219 C 63.414062 64.550781 63.011719 65.214844 62.863281 65.953125 C 62.8125 66.117188 62.785156 66.285156 62.78125 66.453125 C 62.726562 68.371094 62.703125 70.28125 62.839844 72.191406 C 62.839844 72.726562 63.261719 73.164062 63.796875 73.191406 C 63.875 73.195312 63.957031 73.207031 64.035156 73.21875 C 64.195312 73.265625 64.464844 73.125 64.460938 73.464844 C 64.453125 73.804688 64.15625 73.683594 63.988281 73.683594 C 62.789062 73.683594 61.589844 73.683594 60.390625 73.683594 L 59.03125 73.683594 C 58.890625 73.683594 58.734375 73.730469 58.730469 73.488281 C 58.726562 73.25 58.839844 73.273438 59 73.261719 C 60.054688 73.136719 60.339844 72.816406 60.34375 71.761719 C 60.34375 69.425781 60.34375 67.109375 60.34375 64.804688 C 60.390625 64.453125 60.277344 64.097656 60.039062 63.832031 C 59.800781 63.566406 59.460938 63.421875 59.105469 63.429688 C 58.960938 63.429688 58.738281 63.496094 58.753906 63.230469 C 58.769531 62.964844 58.976562 63.078125 59.101562 63.070312 C 60.164062 62.964844 61.230469 62.878906 62.296875 62.761719 C 62.605469 62.726562 62.683594 62.808594 62.671875 63.113281 C 62.640625 63.585938 62.660156 64.105469 62.660156 64.746094 Z M 62.660156 64.746094 "/>
<path style=" stroke:none;fill-rule:nonzero;fill:rgb(84.313725%,84.313725%,84.313725%);fill-opacity:1;" d="M 140.683594 72.839844 C 140.019531 72.914062 139.347656 72.914062 138.683594 72.839844 C 138.160156 72.78125 137.746094 72.367188 137.683594 71.839844 C 137.644531 71.636719 137.609375 71.433594 137.558594 71.175781 C 136.683594 72.167969 135.484375 72.8125 134.175781 73 C 133.566406 73.117188 132.9375 73.078125 132.351562 72.878906 C 131.449219 72.496094 130.804688 71.6875 130.628906 70.722656 C 130.453125 69.761719 130.773438 68.777344 131.480469 68.101562 C 132.558594 67.144531 133.90625 66.84375 135.273438 66.625 C 135.914062 66.523438 136.566406 66.484375 137.210938 66.441406 C 137.433594 66.441406 137.515625 66.359375 137.511719 66.128906 C 137.511719 65.386719 137.511719 64.628906 137.511719 63.894531 C 137.539062 63.039062 136.890625 62.3125 136.039062 62.234375 C 135.484375 62.105469 134.902344 62.140625 134.363281 62.335938 C 133.558594 62.574219 133.007812 63.316406 133.011719 64.15625 C 132.980469 64.953125 132.566406 65.261719 131.800781 65.121094 C 131.476562 65.089844 131.234375 64.8125 131.25 64.488281 C 131.234375 64.0625 131.402344 63.652344 131.710938 63.355469 C 132.800781 62.164062 134.210938 61.804688 135.753906 61.808594 C 136.375 61.816406 136.984375 61.9375 137.558594 62.171875 C 138.554688 62.453125 139.203125 63.410156 139.09375 64.441406 C 139.09375 66.53125 139.09375 68.621094 139.09375 70.714844 C 139.066406 72.273438 139.199219 72.441406 140.683594 72.839844 Z M 137.546875 68.339844 L 137.570312 68.339844 C 137.570312 67.933594 137.570312 67.53125 137.570312 67.125 C 137.570312 66.875 137.484375 66.820312 137.261719 66.839844 C 136.484375 66.867188 135.710938 66.976562 134.953125 67.160156 C 133.109375 67.683594 132.15625 68.980469 132.316406 70.703125 C 132.355469 71.257812 132.625 71.773438 133.058594 72.121094 C 133.492188 72.46875 134.050781 72.621094 134.601562 72.539062 C 136.070312 72.324219 137.242188 71.203125 137.523438 69.746094 C 137.566406 69.277344 137.570312 68.804688 137.539062 68.335938 Z M 137.546875 68.339844 "/>
<path style=" stroke:none;fill-rule:nonzero;fill:rgb(84.313725%,84.313725%,84.313725%);fill-opacity:1;" d="M 99.59375 67.398438 C 99.59375 66.148438 99.59375 64.898438 99.59375 63.65625 C 99.59375 63.269531 99.480469 63.15625 99.128906 63.21875 C 98.953125 63.234375 98.773438 63.234375 98.59375 63.21875 C 98.46875 63.21875 98.316406 63.253906 98.328125 63.046875 C 98.34375 62.835938 98.246094 62.695312 98.496094 62.65625 C 99.921875 62.433594 100.398438 61.355469 100.773438 60.15625 C 100.816406 60.03125 100.84375 59.90625 100.878906 59.78125 C 100.910156 59.578125 101.03125 59.402344 101.207031 59.304688 C 101.386719 59.207031 101.597656 59.199219 101.785156 59.28125 C 101.996094 59.351562 101.921875 59.515625 101.921875 59.644531 C 101.921875 60.453125 101.921875 61.265625 101.921875 62.074219 C 101.921875 62.359375 101.976562 62.476562 102.289062 62.460938 C 102.890625 62.433594 103.488281 62.460938 104.089844 62.460938 C 104.414062 62.460938 104.40625 62.621094 104.410156 62.851562 C 104.414062 63.078125 104.351562 63.195312 104.085938 63.183594 C 103.484375 63.183594 102.886719 63.183594 102.285156 63.183594 C 102.011719 63.183594 101.886719 63.226562 101.886719 63.550781 C 101.886719 65.886719 101.886719 68.214844 101.886719 70.550781 C 101.882812 70.808594 101.90625 71.070312 101.953125 71.324219 C 102.195312 72.585938 103.253906 73.019531 104.324219 72.324219 C 104.464844 72.234375 104.59375 71.886719 104.824219 72.253906 C 105.054688 72.625 104.824219 72.714844 104.636719 72.835938 C 103.5 73.566406 102.085938 73.71875 100.820312 73.246094 C 100.050781 72.976562 99.546875 72.242188 99.570312 71.429688 C 99.539062 70.085938 99.570312 68.738281 99.570312 67.394531 Z M 99.59375 67.398438 "/>
<path style=" stroke:none;fill-rule:nonzero;fill:rgb(76.862745%,76.862745%,76.862745%);fill-opacity:1;" d="M 98.398438 45.164062 C 98.195312 45.164062 98.101562 45 98 44.851562 L 94 39.070312 C 92.082031 36.292969 90.167969 33.519531 88.25 30.746094 C 87.996094 30.40625 87.910156 29.96875 88.023438 29.558594 C 88.164062 28.988281 88.089844 28.933594 87.523438 28.90625 C 86.238281 28.835938 84.953125 28.746094 83.671875 28.660156 C 84.414062 28.160156 85.230469 27.816406 86.015625 27.398438 C 87.683594 26.515625 89.363281 25.644531 91.046875 24.773438 C 91.179688 24.703125 91.304688 24.574219 91.484375 24.621094 C 91.179688 25.128906 90.816406 25.605469 90.410156 26.039062 C 89.734375 26.90625 89.035156 27.75 88.355469 28.609375 C 88.25 28.738281 88.015625 28.933594 88.355469 29.058594 C 88.800781 29.28125 89.265625 29.464844 89.746094 29.605469 C 90.195312 30.660156 90.835938 31.605469 91.378906 32.605469 C 92.324219 34.335938 93.304688 36.039062 94.269531 37.753906 L 98.050781 44.460938 C 98.171875 44.699219 98.28125 44.933594 98.398438 45.164062 Z M 98.398438 45.164062 "/>
<path style=" stroke:none;fill-rule:nonzero;fill:rgb(84.313725%,84.313725%,84.313725%);fill-opacity:1;" d="M 97.800781 19.183594 C 96.855469 18.90625 96 18.398438 95.078125 18.058594 C 94.359375 17.796875 93.710938 17.34375 92.929688 17.21875 C 92.855469 16.769531 93.285156 16.589844 93.429688 16.265625 L 105.300781 16.265625 L 105.300781 16.335938 L 103.726562 16.835938 L 99.226562 18.261719 C 99.152344 18.292969 99.082031 18.332031 99.019531 18.378906 C 98.558594 18.5 98.269531 19 97.800781 19.183594 Z M 97.800781 19.183594 "/>
<path style=" stroke:none;fill-rule:nonzero;fill:rgb(0.784314%,52.156863%,80.392157%);fill-opacity:1;" d="M 174.71875 64.699219 C 174.59375 64.664062 174.515625 64.613281 174.644531 64.488281 C 174.707031 64.542969 174.734375 64.621094 174.71875 64.699219 Z M 174.71875 64.699219 "/>
<path style=" stroke:none;fill-rule:nonzero;fill:rgb(0.784314%,52.156863%,80.392157%);fill-opacity:1;" d="M 174.328125 63.421875 C 174.199219 63.394531 174.109375 63.351562 174.261719 63.226562 Z M 174.328125 63.421875 "/>
<path style=" stroke:none;fill-rule:nonzero;fill:rgb(0%,65.490196%,90.980392%);fill-opacity:1;" d="M 158.824219 46.925781 C 158.871094 47.039062 158.800781 47.058594 158.714844 47.074219 C 158.695312 47 158.75 46.945312 158.824219 46.925781 Z M 158.824219 46.925781 "/>
<path style=" stroke:none;fill-rule:nonzero;fill:rgb(0.784314%,52.156863%,80.392157%);fill-opacity:1;" d="M 174.5 64 C 174.433594 64 174.363281 64 174.460938 63.914062 C 174.488281 63.933594 174.503906 63.964844 174.5 64 Z M 174.5 64 "/>
<path style=" stroke:none;fill-rule:nonzero;fill:rgb(0%,65.490196%,90.980392%);fill-opacity:1;" d="M 91.585938 24.5 L 91.480469 24.609375 C 91.464844 24.539062 91.53125 24.535156 91.585938 24.5 Z M 91.585938 24.5 "/>
<path style=" stroke:none;fill-rule:nonzero;fill:rgb(49.019608%,74.117647%,20.784314%);fill-opacity:1;" d="M 176.726562 71.058594 L 176.765625 71.03125 C 176.753906 71.042969 176.742188 71.054688 176.726562 71.058594 Z M 176.726562 71.058594 "/>
<path style=" stroke:none;fill-rule:nonzero;fill:rgb(0%,65.490196%,90.980392%);fill-opacity:1;" d="M 173.671875 63.714844 C 173.59375 63.671875 173.550781 63.585938 173.570312 63.5 C 173.640625 63.546875 173.679688 63.628906 173.671875 63.714844 Z M 173.671875 63.714844 "/>
<path style=" stroke:none;fill-rule:nonzero;fill:rgb(0%,65.490196%,90.980392%);fill-opacity:1;" d="M 173.875 64 C 173.800781 63.960938 173.757812 63.882812 173.769531 63.800781 C 173.839844 63.84375 173.878906 63.917969 173.875 64 Z M 173.875 64 "/>
<path style=" stroke:none;fill-rule:nonzero;fill:rgb(0%,65.490196%,90.980392%);fill-opacity:1;" d="M 173.769531 63.808594 L 173.671875 63.710938 Z M 173.769531 63.808594 "/>
</g>
</svg>
