<?xml version="1.0" standalone="no"?>
<!DOCTYPE svg PUBLIC "-//W3C//DTD SVG 20010904//EN"
 "http://www.w3.org/TR/2001/REC-SVG-20010904/DTD/svg10.dtd">
<svg version="1.0" xmlns="http://www.w3.org/2000/svg"
 width="60" height="30" viewBox="0 0 1200.000000 803.000000"
 preserveAspectRatio="xMidYMid meet">

<g transform="translate(0.000000,803.000000) scale(0.100000,-0.100000)"
fill="#606060" stroke="none">
<path d="M201 8011 c-29 -10 -65 -27 -80 -38 -39 -30 -89 -99 -101 -141 -7
-25 -10 -1244 -10 -3818 0 -3358 2 -3786 15 -3825 29 -80 98 -147 176 -169 55
-16 11556 -13 11602 2 62 22 120 71 152 129 l30 54 3 3801 2 3801 -32 64 c-38
75 -93 121 -170 144 -46 13 -675 15 -5792 15 -5557 -1 -5743 -1 -5795 -19z
m6039 -1466 c281 -140 510 -259 510 -264 0 -5 -210 -124 -467 -266 -258 -141
-472 -262 -478 -267 -6 -6 4 -7 30 -2 67 13 1337 10 1600 -4 1326 -70 2265
-236 3010 -535 798 -319 1246 -768 1272 -1274 4 -70 1 -141 -7 -190 -137 -855
-1365 -1630 -3135 -1976 -626 -123 -1241 -187 -1958 -204 -286 -6 -288 -6
-283 -27 19 -71 58 -258 54 -261 -2 -3 -237 113 -522 256 -285 144 -514 264
-509 268 4 4 220 124 478 266 259 142 471 258 472 259 1 1 -267 0 -596 -2
-928 -7 -1555 25 -2241 113 -1169 151 -2071 452 -2582 864 -105 85 -256 244
-317 335 -118 174 -170 326 -178 516 -10 248 64 473 235 715 83 116 343 374
487 481 938 700 2480 1114 4330 1163 179 5 328 11 330 13 2 2 -10 59 -26 128
-29 127 -33 150 -24 150 3 0 235 -115 515 -255z"/>
<path d="M5265 6003 c-1669 -56 -3191 -479 -3975 -1103 -106 -85 -262 -244
-323 -331 -56 -80 -121 -213 -142 -294 -22 -81 -22 -233 0 -315 124 -476 799
-879 1950 -1164 844 -209 1931 -350 3250 -422 165 -8 305 -20 311 -25 7 -6 7
-41 -2 -121 -7 -62 -13 -123 -13 -135 l-1 -23 273 0 c890 0 1831 127 2622 355
1347 388 2156 1013 2084 1610 -39 319 -338 621 -862 870 -864 411 -2394 693
-4287 790 -354 18 -376 21 -382 38 -3 6 1 64 8 127 7 63 13 123 14 133 0 16
-16 17 -222 15 -123 -1 -259 -3 -303 -5z m-2320 -1157 c149 -44 256 -122 303
-224 24 -51 27 -69 27 -167 0 -124 -22 -213 -78 -320 -44 -84 -155 -192 -242
-237 -145 -75 -276 -98 -556 -98 l-176 0 -48 -247 c-26 -137 -50 -254 -53
-260 -3 -10 -63 -13 -253 -13 -137 0 -249 2 -249 5 0 3 47 246 105 539 58 294
105 539 105 544 0 6 -26 12 -58 14 l-58 3 110 243 111 243 475 -4 c415 -3 483
-6 535 -21z m1720 -5 c100 -33 141 -56 201 -113 80 -75 99 -128 98 -263 -1
-86 -6 -123 -23 -169 -59 -163 -196 -286 -386 -347 -38 -12 -72 -23 -74 -25
-2 -1 99 -144 223 -318 124 -173 226 -317 226 -320 0 -3 -139 -6 -309 -6
l-308 0 -169 292 c-131 228 -169 287 -175 272 -4 -10 -31 -142 -61 -291 l-52
-273 -248 0 c-227 0 -248 1 -248 17 0 17 197 1034 206 1066 5 15 -2 17 -50 17
-31 0 -56 2 -56 5 0 2 43 98 96 212 53 115 98 223 101 241 l6 33 466 -3 c455
-4 468 -4 536 -27z m1315 26 c0 -3 -286 -1466 -301 -1534 l-10 -53 -250 0
c-152 0 -249 4 -249 10 0 5 47 250 105 544 58 294 105 537 105 540 0 3 -25 6
-55 6 -30 0 -55 2 -55 3 0 2 45 102 100 222 55 119 100 225 100 234 0 10 3 21
7 24 6 7 503 10 503 4z m1260 -407 c58 -225 107 -410 110 -410 3 0 129 185
280 410 l275 409 247 1 c136 0 249 -3 251 -7 2 -5 -2 -316 -9 -693 -7 -377
-13 -731 -13 -787 l-1 -103 -250 0 -250 0 0 51 c0 28 7 208 16 400 8 192 14
366 12 386 -3 35 -16 18 -307 -400 l-304 -437 -102 0 -101 0 -124 440 c-68
241 -127 437 -130 434 -3 -3 -77 -200 -166 -437 l-161 -432 -246 -3 c-193 -2
-247 0 -247 10 0 7 97 257 216 557 226 568 224 560 167 561 -59 0 -57 5 92
226 80 118 145 218 145 224 0 6 89 10 248 10 l248 0 104 -410z m2889 373 c22
-83 391 -1547 391 -1550 0 -2 -121 -3 -268 -3 l-268 0 -33 135 -33 135 -333 0
-332 0 -92 -135 -92 -135 -265 0 c-210 0 -264 3 -258 13 17 27 728 1114 746
1139 l19 27 -51 22 c-27 12 -50 25 -50 29 0 4 75 76 168 160 92 84 174 163
182 176 l15 24 272 0 272 0 10 -37z"/>
<path d="M2331 4348 c-19 -95 -36 -179 -39 -187 -4 -11 20 -13 139 -9 125 3
150 6 191 26 61 30 94 70 114 139 20 68 12 117 -25 154 -39 38 -88 49 -226 49
l-121 0 -33 -172z"/>
<path d="M4067 4358 c-20 -100 -34 -184 -32 -188 7 -12 192 9 256 29 85 27
132 74 148 151 21 99 -23 145 -168 176 -36 7 -89 14 -117 14 l-52 0 -35 -182z"/>
<path d="M9604 4117 l-142 -232 186 -3 c102 -1 187 -1 189 2 3 3 -79 425 -90
458 -1 4 -66 -97 -143 -225z"/>
</g>
</svg>
